<?xml version="1.0" encoding="utf-8"?>
<!-- Generator: Adobe Illustrator 24.0.3, SVG Export Plug-In . SVG Version: 6.00 Build 0)  -->
<svg version="1.1" id="Instagram" xmlns="http://www.w3.org/2000/svg" xmlns:xlink="http://www.w3.org/1999/xlink" x="0px" y="0px"
	 viewBox="0 0 18 18" style="enable-background:new 0 0 18 18;" xml:space="preserve">
<path d="M15.2,14.6V7.8h-1.4C14,8.2,14,8.7,14,9.1c0,0.9-0.2,1.7-0.7,2.4c-0.4,0.7-1.1,1.3-1.8,1.8C10.8,13.8,9.9,14,9,14
	c-1.4,0-2.6-0.5-3.5-1.4C4.5,11.6,4,10.5,4,9.1c0-0.5,0.1-0.9,0.2-1.4H2.7v6.8c0,0.2,0.1,0.3,0.2,0.5s0.3,0.2,0.5,0.2h11.2
	c0.2,0,0.3-0.1,0.5-0.2C15.2,14.9,15.2,14.7,15.2,14.6L15.2,14.6z M12.2,9c0-0.9-0.3-1.6-0.9-2.2C10.7,6.1,9.9,5.8,9,5.8
	c-0.9,0-1.6,0.3-2.3,0.9S5.8,8.1,5.8,9c0,0.9,0.3,1.6,0.9,2.2s1.4,0.9,2.3,0.9c0.9,0,1.7-0.3,2.3-0.9C11.9,10.6,12.2,9.8,12.2,9z
	 M15.2,5.2V3.5c0-0.2-0.1-0.4-0.2-0.5c-0.1-0.1-0.3-0.2-0.5-0.2h-1.8c-0.2,0-0.4,0.1-0.5,0.2C12,3.1,12,3.3,12,3.5v1.7
	c0,0.2,0.1,0.4,0.2,0.5c0.1,0.1,0.3,0.2,0.5,0.2h1.8c0.2,0,0.4-0.1,0.5-0.2C15.2,5.6,15.2,5.4,15.2,5.2z M17,3v12
	c0,0.6-0.2,1.1-0.6,1.5C16,16.8,15.6,17,15,17H3c-0.6,0-1.1-0.2-1.5-0.6C1.2,16,1,15.6,1,15V3C1,2.4,1.2,2,1.6,1.6S2.4,1,3,1h12
	c0.6,0,1.1,0.2,1.5,0.6C16.8,2,17,2.4,17,3z"/>
</svg>
