<?xml version="1.0" encoding="utf-8"?>
<!-- Generator: Adobe Illustrator 24.0.3, SVG Export Plug-In . SVG Version: 6.00 Build 0)  -->
<svg version="1.1" id="Layer_1" xmlns="http://www.w3.org/2000/svg" xmlns:xlink="http://www.w3.org/1999/xlink" x="0px" y="0px"
	 viewBox="0 0 48 48" style="enable-background:new 0 0 48 48;" xml:space="preserve">
<style type="text/css">
	.st0{fill:none;stroke:#000000;stroke-width:4;stroke-miterlimit:10;}
</style>
<circle class="st0" cx="24" cy="24" r="20"/>
<g>
	<path d="M26.2,14.6c1.4,0,1.9,0.8,1.9,1.9c0,1.3-1,2.4-2.7,2.4c-1.4,0-2.1-0.6-2.1-1.9C23.4,15.8,24.3,14.6,26.2,14.6z"/>
	<path d="M22.4,33.4c-1,0-1.7-0.6-1.1-3.3l1.1-4.8c0.2-0.8,0.2-1.1,0-1.1c-0.3,0-1.6,0.5-2.4,1.1l-0.5-0.8c2.5-2.2,5.4-3.5,6.5-3.5
		c1,0,1.1,1.3,0.6,3l-1.3,5.1c-0.2,1-0.2,1.3,0.2,1.3c0.3,0,1.3-0.3,2.2-1.1l0.6,0.8C26.1,32.5,23.4,33.4,22.4,33.4z"/>
</g>
</svg>
