<?xml version="1.0" encoding="utf-8"?>
<!-- Generator: Adobe Illustrator 24.0.3, SVG Export Plug-In . SVG Version: 6.00 Build 0)  -->
<svg version="1.1" id="Behance" xmlns="http://www.w3.org/2000/svg" xmlns:xlink="http://www.w3.org/1999/xlink" x="0px" y="0px"
	 viewBox="0 0 20 20" style="enable-background:new 0 0 20 20;" xml:space="preserve">
<path d="M8.1,9.3c0,0,1.9-0.1,1.9-2.5c0-2.3-1.5-3.4-3.5-3.4H0v12.9h6.5c0,0,3.9,0.1,3.9-3.8C10.4,12.5,10.6,9.3,8.1,9.3z M2.8,5.7
	h3.6c0,0,0.9,0,0.9,1.3c0,1.3-0.5,1.5-1.1,1.5H2.8V5.7z M6.3,14H2.8v-3.5h3.6c0,0,1.3,0,1.3,1.8C7.8,13.9,6.8,14,6.3,14z M15.6,6.7
	c-4.8,0-4.8,5-4.8,5s-0.3,4.9,4.8,4.9c0,0,4.2,0.3,4.2-3.4h-2.2c0,0,0.1,1.4-2,1.4c0,0-2.2,0.2-2.2-2.2H20
	C20,12.3,20.7,6.7,15.6,6.7z M17.6,10.6h-4.1c0,0,0.3-2,2.2-2S17.6,10.6,17.6,10.6z M18.1,4.2H13v1.6h5.1V4.2z"/>
</svg>
