<?xml version="1.0" encoding="utf-8"?>
<!-- Generator: Adobe Illustrator 24.0.3, SVG Export Plug-In . SVG Version: 6.00 Build 0)  -->
<svg version="1.1" id="Dribbble" xmlns="http://www.w3.org/2000/svg" xmlns:xlink="http://www.w3.org/1999/xlink" x="0px" y="0px"
	 viewBox="0 0 20 20" style="enable-background:new 0 0 20 20;" xml:space="preserve">
<path d="M9.6,7.4C8.2,5,6.8,3,6.6,2.9c-2.2,1-3.8,3.1-4.3,5.5C2.5,8.4,5.8,8.4,9.6,7.4z M10.5,10.1c0.1,0,0.2-0.1,0.3-0.1
	c-0.2-0.4-0.4-0.9-0.6-1.3c-4,1.2-7.9,1.1-8.1,1.1c0,0.1,0,0.2,0,0.2c0,2,0.8,3.9,2,5.3l0,0C4.2,15.2,6.3,11.4,10.5,10.1z M5.2,16.2
	L5.2,16.2c-0.1,0-0.1-0.1-0.2-0.1C5.1,16.1,5.2,16.2,5.2,16.2z M8.1,2.4C8.1,2.4,8.1,2.4,8.1,2.4C8.1,2.4,8.1,2.4,8.1,2.4L8.1,2.4z
	 M15.2,4.1c-1.4-1.2-3.2-2-5.2-2c-0.6,0-1.3,0.1-1.9,0.2c0.1,0.2,1.6,2.1,2.9,4.6C14,5.8,15.2,4.1,15.2,4.1z M10,19.2
	c-5.1,0-9.2-4.1-9.2-9.2c0-5.1,4.1-9.2,9.2-9.2c5.1,0,9.2,4.1,9.2,9.2C19.2,15.1,15.1,19.2,10,19.2z M11.3,11.3
	c-4.6,1.6-6.1,4.8-6.2,4.9c1.3,1,3,1.7,4.8,1.7c1.1,0,2.1-0.2,3.1-0.6C12.9,16.5,12.5,14.1,11.3,11.3C11.4,11.3,11.4,11.3,11.3,11.3
	z M11.7,8.1c0.2,0.4,0.4,0.8,0.5,1.1c0.1,0.1,0.1,0.3,0.2,0.4c2.7-0.3,5.4,0.2,5.5,0.3c0-1.9-0.7-3.6-1.8-4.9
	C16.1,5,14.8,6.9,11.7,8.1z M12.9,10.9c1,2.8,1.4,5.1,1.5,5.6c1.8-1.2,3-3.1,3.4-5.3C17.6,11.2,15.4,10.5,12.9,10.9z"/>
</svg>
