<?xml version="1.0" encoding="utf-8"?>
<!-- Generator: Adobe Illustrator 24.0.3, SVG Export Plug-In . SVG Version: 6.00 Build 0)  -->
<svg version="1.1" id="圖層_1" xmlns="http://www.w3.org/2000/svg" xmlns:xlink="http://www.w3.org/1999/xlink" x="0px" y="0px"
	 viewBox="0 0 41.3 50.9" style="enable-background:new 0 0 41.3 50.9;" xml:space="preserve">
<g>
	<g>
		<path d="M41.3,38.8c0,6.7-5.4,12.1-12.1,12.1c-3.7,0-7-1.6-9.2-4.2c-1.8-2.1-2.9-4.9-2.9-7.8c0-0.2,0-0.3,0-0.5c0,0,0-0.1,0-0.1
			c0-0.3,0-0.6,0-0.9c0-3.3-0.8-6.4-2.3-9.1v0c-0.2-0.4-0.4-0.7-0.6-1.1c-0.3-0.4-0.6-0.9-0.9-1.3c-0.1-0.1-0.2-0.3-0.3-0.4
			C10,21.3,5.4,18.5,0,17.9c0.9-0.1,1.9-0.2,2.9-0.2c0.8,0,1.6,0,2.3,0.1v0c2.7,0.3,5.2,1.2,7.4,2.4c1.8,1,3.5,2.4,4.8,3.9
			c0,0.1,0.1,0.1,0.1,0.2c0.3,0.3,0.6,0.7,0.9,1l0,0c1.1,1.4,1.9,2.9,2.6,4.6c0.2,0.6,0.5,1.2,0.7,1.9c0,0.1,0,0.1,0,0.2
			c1.5,5,6.1,8.6,11.6,8.6c3,0,5.8-1.1,7.9-3c0,0,0,0,0,0C41.3,38,41.3,38.4,41.3,38.8z"/>
		<path d="M41.2,7.3c-2.4,5.9-6.6,11-11.8,14.5c-3.6,2.4-7.6,4-12,4.8l0,0c5.6-2.9,10.2-7.4,13.2-12.9c0,0,0.1-0.1,0.1-0.1
			C32.7,9.8,36.6,7.3,41.2,7.3z"/>
		<path d="M29.2,0.9c0-0.3,0-0.6-0.1-0.9C25.8,2.6,21.6,4.2,17,4.2c-0.7,0-1.4,0-2.1-0.1c-0.6-0.1-1.2-0.1-1.7-0.3
			c0.2,0,0.4,0.1,0.6,0.2c0.1,0,0.1,0,0.2,0.1c0.1,0,0.1,0.1,0.2,0.1s0.1,0.1,0.2,0.1c0.1,0,0.1,0.1,0.2,0.1
			c0.1,0.1,0.2,0.1,0.3,0.2c0,0,0,0,0,0c0.1,0.1,0.2,0.2,0.3,0.2c0.1,0.1,0.2,0.1,0.3,0.2c0.1,0.1,0.2,0.2,0.3,0.3c0,0,0,0,0,0
			c0,0,0,0,0,0c0.1,0.1,0.1,0.1,0.2,0.2c1.4,1.7,3.5,2.8,5.8,2.8c0.3,0,0.6,0,0.9-0.1l-6,11.7l-1.2,2.3l-0.6,1.1l-1.3,2.4L13.6,26
			l-0.4,0.7l-12,23.2c4.4-1.7,8-4.9,10.2-9l0,0l0.3-0.7l5.6-10.8l4.4-8.5l5.3-10.3c1.4-2.7,2.1-5.7,2.1-8.9
			C29.2,1.4,29.2,1.1,29.2,0.9z M18.4,25.4C18.4,25.4,18.4,25.3,18.4,25.4L18.4,25.4C18.4,25.4,18.4,25.4,18.4,25.4z"/>
	</g>
</g>
</svg>
