<?xml version="1.0" encoding="utf-8"?>
<!-- Generator: Adobe Illustrator 24.0.3, SVG Export Plug-In . SVG Version: 6.00 Build 0)  -->
<svg version="1.1" id="Medium" xmlns="http://www.w3.org/2000/svg" xmlns:xlink="http://www.w3.org/1999/xlink" x="0px" y="0px"
	 viewBox="0 0 20 20" style="enable-background:new 0 0 20 20;" xml:space="preserve">
<path d="M18.8,5c0,0-0.8,0-0.8,0.8s0,8.5,0,8.5s0,0.7,0.8,0.7H19v2h-6v-2h1V5.7h-0.1L10.8,17H8.1l-3-11.3H5V15h1v2H1v-2h0.2
	c0,0,0.8,0,0.8-0.8c0-0.8,0-8.5,0-8.5S2,5,1.2,5H1V3h6.6l2.3,8.7H10L12.4,3H19v2H18.8z"/>
</svg>
